<svg width="946" height="935" viewBox="0 0 946 935" fill="none" xmlns="http://www.w3.org/2000/svg">
<path d="M933.151 359.109L841.205 313.648L849.446 339.732L773.902 346.179L865.848 391.641L857.609 365.55L933.151 359.109Z" fill="#97E299"/>
<path d="M774.828 401.091L706.232 367.171L712.382 386.633L656.026 391.444L724.619 425.359L718.469 405.897L774.828 401.091Z" fill="#97E299"/>
<path d="M945.762 506.785L872.364 435.134L872.141 462.493L798.306 445.278L871.703 516.928L871.926 489.57L945.762 506.785Z" fill="#97E299"/>
<path d="M782.214 497.784L727.459 444.33L727.289 464.743L672.209 451.901L726.964 505.354L727.13 484.944L782.214 497.784Z" fill="#97E299"/>
<path d="M864.456 560.304L855.791 586.258L790.888 547.064L838.551 637.891L847.22 611.941L912.124 651.128L864.456 560.304Z" fill="#97E299"/>
<path d="M723.804 524.274L717.332 543.636L668.914 514.398L704.473 582.156L710.941 562.797L759.359 592.035L723.804 524.274Z" fill="#97E299"/>
<path d="M818.258 676.905L801.996 698.909L752.38 641.582L769.643 742.69L785.909 720.69L835.524 778.017L818.258 676.905Z" fill="#97E299"/>
<path d="M695.622 599.177L683.488 615.589L646.474 572.822L659.355 648.252L671.485 631.836L708.503 674.607L695.622 599.177Z" fill="#97E299"/>
<path d="M738.29 773.528L716.023 789.429L686.55 719.575L671.726 821.067L693.993 805.167L723.466 875.021L738.29 773.528Z" fill="#97E299"/>
<path d="M645.676 661.701L629.061 673.565L607.074 621.452L596.017 697.168L612.628 685.306L634.615 737.42L645.676 661.701Z" fill="#97E299"/>
<path d="M599.843 773.403L554.381 865.349L580.469 857.105L586.912 932.651L632.374 840.705L606.283 848.945L599.843 773.403Z" fill="#97E299"/>
<path d="M554.575 655.522L520.663 724.119L540.125 717.969L544.931 774.328L578.851 705.733L559.386 711.878L554.575 655.522Z" fill="#97E299"/>
<path d="M500.744 797.806L429.094 871.203L456.452 871.427L439.237 945.262L510.888 871.865L483.529 871.641L500.744 797.806Z" fill="#97E299"/>
<path d="M494.121 671.709L440.668 726.464L461.078 726.63L448.238 781.715L501.692 726.96L481.279 726.789L494.121 671.709Z" fill="#97E299"/>
<path d="M398.955 790.384L308.131 838.052L334.081 846.72L294.891 911.62L385.714 863.96L359.764 855.291L398.955 790.384Z" fill="#97E299"/>
<path d="M431.623 668.414L363.866 703.974L383.225 710.441L353.987 758.859L421.745 723.3L402.386 716.833L431.623 668.414Z" fill="#97E299"/>
<path d="M304.44 751.88L203.332 769.144L225.332 785.409L168.005 835.024L269.113 817.761L247.113 801.496L304.44 751.88Z" fill="#97E299"/>
<path d="M373.2 645.974L297.77 658.855L314.186 670.986L271.415 708.003L346.845 695.122L330.433 682.988L373.2 645.974Z" fill="#97E299"/>
<path d="M226.447 686.05L124.955 671.226L140.855 693.493L71.0012 722.966L172.494 737.79L156.593 715.523L226.447 686.05Z" fill="#97E299"/>
<path d="M324.57 606.574L248.851 595.513L260.715 612.128L208.602 634.115L284.318 645.172L272.457 628.561L324.57 606.574Z" fill="#97E299"/>
<path d="M172.619 599.343L80.6732 553.881L88.9173 579.969L13.3708 586.413L105.317 631.874L97.077 605.783L172.619 599.343Z" fill="#97E299"/>
<path d="M290.5 554.076L221.903 520.163L228.053 539.625L171.694 544.431L240.286 578.347L234.141 558.882L290.5 554.076Z" fill="#97E299"/>
<path d="M148.216 500.244L74.8186 428.594L74.5952 455.953L0.759854 438.738L74.1574 510.388L74.3807 483.029L148.216 500.244Z" fill="#97E299"/>
<path d="M274.313 493.621L219.558 440.168L219.392 460.578L164.304 447.734L219.059 501.188L219.23 480.775L274.313 493.621Z" fill="#97E299"/>
<path d="M107.97 307.631L99.3014 333.581L34.4016 294.391L82.0621 385.214L90.7308 359.264L155.631 398.454L107.97 307.631Z" fill="#97E299"/>
<path d="M242.048 363.366L235.581 382.725L187.163 353.488L222.718 421.248L229.186 401.882L277.604 431.119L242.048 363.366Z" fill="#97E299"/>
<path d="M176.878 202.832L160.613 224.832L110.997 167.506L128.261 268.613L144.526 246.613L194.141 303.94L176.878 202.832Z" fill="#97E299"/>
<path d="M287.167 297.27L275.033 313.682L238.019 270.915L250.9 346.345L263.034 329.933L300.048 372.7L287.167 297.27Z" fill="#97E299"/>
<path d="M274.796 124.455L252.528 140.356L223.056 70.5015L208.232 171.994L230.499 156.093L259.972 225.947L274.796 124.455Z" fill="#97E299"/>
<path d="M350.509 248.351L333.894 260.216L311.907 208.102L300.85 283.818L317.461 271.957L339.448 324.071L350.509 248.351Z" fill="#97E299"/>
<path d="M359.609 12.871L314.148 104.817L340.236 96.573L346.679 172.119L392.14 80.1735L366.049 88.4132L359.609 12.871Z" fill="#97E299"/>
<path d="M401.591 171.194L367.671 239.79L387.137 233.637L391.943 289.996L425.859 221.403L406.397 227.553L401.591 171.194Z" fill="#97E299"/>
<path d="M507.284 0.260154L435.634 73.6576L462.993 73.881L445.778 147.716L517.428 74.3189L490.069 74.0956L507.284 0.260154Z" fill="#97E299"/>
<path d="M498.288 163.804L444.83 218.562L465.244 218.726L452.4 273.813L505.854 219.058L485.444 218.892L498.288 163.804Z" fill="#97E299"/>
<path d="M651.63 33.9019L560.808 81.5624L586.758 90.2311L547.568 155.131L638.391 107.47L612.441 98.8017L651.63 33.9019Z" fill="#97E299"/>
<path d="M592.534 186.663L524.773 222.218L544.137 228.682L514.898 277.108L582.656 241.548L563.297 235.081L592.534 186.663Z" fill="#97E299"/>
<path d="M778.516 110.498L677.409 127.761L699.409 144.026L642.082 193.642L743.189 176.379L721.19 160.113L778.516 110.498Z" fill="#97E299"/>
<path d="M675.107 237.519L599.677 250.4L616.089 262.534L573.322 299.548L648.752 286.667L632.335 274.537L675.107 237.519Z" fill="#97E299"/>
<path d="M875.52 222.556L774.028 207.732L789.929 229.999L720.075 259.472L821.567 274.296L805.666 252.029L875.52 222.556Z" fill="#97E299"/>
<path d="M737.92 311.407L662.201 300.346L674.065 316.961L621.951 338.948L697.667 350.005L685.806 333.394L737.92 311.407Z" fill="#97E299"/>
</svg>
